<?xml version="1.0" encoding="utf-8"?>
<!-- Generator: Adobe Illustrator 16.0.3, SVG Export Plug-In . SVG Version: 6.00 Build 0)  -->
<!DOCTYPE svg PUBLIC "-//W3C//DTD SVG 1.1//EN" "http://www.w3.org/Graphics/SVG/1.1/DTD/svg11.dtd">
<svg version="1.1" id="Layer_1" xmlns="http://www.w3.org/2000/svg" xmlns:xlink="http://www.w3.org/1999/xlink" x="0px" y="0px"
	 width="82.167px" height="30px" viewBox="0 0 82.167 30" enable-background="new 0 0 82.167 30" xml:space="preserve">
<path id="path2424_7_" fill="#FD932A" d="M29.066,8.196v1.068h3.131V8.196c0-2.585,2.104-4.688,4.689-4.688
	c2.584,0,4.688,2.103,4.688,4.688v7.726h3.132V8.196c0-4.312-3.508-7.82-7.82-7.82C32.574,0.376,29.066,3.884,29.066,8.196"/>
<path id="path2426_7_" fill="#FD932A" d="M39.482,20.43c0,1.427-1.157,2.584-2.583,2.584s-2.584-1.157-2.584-2.584
	c0-1.427,1.157-2.584,2.584-2.584S39.482,19.003,39.482,20.43"/>
<path id="path2428_7_" fill="#FD932A" d="M30.778,20.403c0-3.358,2.732-6.09,6.09-6.09s6.089,2.732,6.089,6.09
	c0,3.357-2.731,6.09-6.089,6.09S30.778,23.76,30.778,20.403 M27.646,20.403c0,5.084,4.137,9.221,9.222,9.221
	s9.222-4.137,9.222-9.221c0-5.085-4.137-9.222-9.222-9.222S27.646,15.318,27.646,20.403"/>
<path id="path2430_7_" fill="#FD932A" d="M3.572,19.551c0.96,0,1.509-0.904,1.509-2.133c0-1.127-0.531-2.097-1.509-2.097
	c-0.978,0-1.528,0.95-1.528,2.125c0,1.184,0.569,2.105,1.519,2.105H3.572z M3.507,20.678c-1.854,0-2.954-1.407-2.954-3.195
	c0-1.883,1.211-3.289,3.056-3.289c1.929,0,2.981,1.443,2.981,3.177c0,2.069-1.239,3.308-3.075,3.308H3.507L3.507,20.678z"/>
<path id="path2432_7_" fill="#FD932A" d="M9.26,17.23c0.121,0.029,0.27,0.038,0.475,0.038c0.755,0,1.221-0.382,1.221-1.016
	c0-0.577-0.392-0.922-1.108-0.922c-0.289,0-0.485,0.019-0.587,0.046V17.23z M7.854,14.38c0.438-0.074,1.053-0.13,1.919-0.13
	c0.876,0,1.509,0.167,1.929,0.512c0.401,0.307,0.662,0.829,0.662,1.444c0,0.624-0.196,1.146-0.568,1.491
	c-0.485,0.447-1.211,0.662-2.05,0.662c-0.186,0-0.354-0.009-0.484-0.038v2.255H7.854V14.38z"/>
<path id="path2434_7_" fill="#FD932A" d="M17.333,17.92h-2.311v1.49h2.582v1.165h-3.997v-6.28h3.866v1.165h-2.45v1.304h2.311V17.92
	L17.333,17.92z"/>
<path id="path2436_7_" fill="#FD932A" d="M19.271,20.576v-6.28h1.659l1.304,2.301c0.373,0.662,0.736,1.444,1.025,2.152h0.019
	c-0.084-0.829-0.112-1.677-0.112-2.627v-1.826h1.305v6.28h-1.491l-1.342-2.422c-0.373-0.68-0.792-1.481-1.09-2.217H20.51
	c0.046,0.838,0.065,1.723,0.065,2.748v1.892H19.271z"/>
<path id="path2438_7_" fill="#FD932A" d="M51.706,17.902l-0.391-1.333c-0.102-0.373-0.214-0.847-0.308-1.211h-0.027
	c-0.084,0.372-0.187,0.847-0.28,1.211l-0.382,1.333H51.706z M50.112,18.963l-0.438,1.612h-1.472l1.919-6.28h1.855l1.956,6.28h-1.528
	l-0.485-1.612H50.112z"/>
<path id="path2440_7_" fill="#FD932A" d="M59.288,20.408c-0.251,0.121-0.848,0.271-1.603,0.271c-2.171,0-3.289-1.36-3.289-3.158
	c0-2.144,1.528-3.327,3.429-3.327c0.736,0,1.295,0.149,1.547,0.28l-0.298,1.118c-0.28-0.121-0.68-0.233-1.193-0.233
	c-1.118,0-1.994,0.681-1.994,2.087c0,1.257,0.746,2.05,2.003,2.05c0.438,0,0.903-0.084,1.192-0.205L59.288,20.408z"/>
<path id="path2442_7_" fill="#FD932A" d="M64.875,20.408c-0.252,0.121-0.848,0.271-1.603,0.271c-2.171,0-3.289-1.36-3.289-3.158
	c0-2.144,1.528-3.327,3.429-3.327c0.736,0,1.295,0.149,1.547,0.28l-0.298,1.118c-0.279-0.121-0.681-0.233-1.193-0.233
	c-1.118,0-1.994,0.681-1.994,2.087c0,1.257,0.746,2.05,2.003,2.05c0.438,0,0.904-0.084,1.192-0.205L64.875,20.408z"/>
<path id="path2444_7_" fill="#FD932A" d="M70.251,17.92h-2.311v1.49h2.581v1.165h-3.997v-6.28h3.866v1.165h-2.45v1.304h2.311V17.92z
	"/>
<path id="path2446_7_" fill="#FD932A" d="M72.236,19.122c0.373,0.196,0.969,0.392,1.575,0.392c0.651,0,0.997-0.27,0.997-0.689
	c0-0.382-0.298-0.615-1.054-0.876c-1.043-0.372-1.732-0.95-1.732-1.873c0-1.071,0.903-1.882,2.376-1.882
	c0.717,0,1.229,0.14,1.603,0.317l-0.317,1.137c-0.242-0.121-0.699-0.298-1.304-0.298c-0.615,0-0.913,0.289-0.913,0.605
	c0,0.401,0.345,0.578,1.164,0.894c1.109,0.411,1.622,0.987,1.622,1.882c0,1.053-0.802,1.948-2.525,1.948
	c-0.718,0-1.426-0.196-1.779-0.392L72.236,19.122z"/>
<path id="path2448_7_" fill="#FD932A" d="M77.598,19.122c0.372,0.196,0.969,0.392,1.574,0.392c0.652,0,0.997-0.27,0.997-0.689
	c0-0.382-0.299-0.615-1.054-0.876c-1.043-0.372-1.732-0.95-1.732-1.873c0-1.071,0.903-1.882,2.376-1.882
	c0.718,0,1.229,0.14,1.603,0.317l-0.316,1.137c-0.242-0.121-0.699-0.298-1.305-0.298c-0.615,0-0.913,0.289-0.913,0.605
	c0,0.401,0.345,0.578,1.165,0.894c1.108,0.411,1.621,0.987,1.621,1.882c0,1.053-0.802,1.948-2.525,1.948
	c-0.717,0-1.426-0.196-1.779-0.392L77.598,19.122z"/>
</svg>
